<?xml version="1.0" encoding="utf-8"?>
<!-- Generator: Adobe Illustrator 23.0.3, SVG Export Plug-In . SVG Version: 6.00 Build 0)  -->
<svg version="1.1" xmlns="http://www.w3.org/2000/svg" xmlns:xlink="http://www.w3.org/1999/xlink" x="0px" y="0px"
	 viewBox="0 0 512 512" style="enable-background:new 0 0 512 512;" xml:space="preserve">
<style type="text/css">
	.st0{fill:#6D8397;}
	.st1{opacity:0.5;fill:#FFFFFF;}
	.st2{fill:#FFFFFF;}
</style>
<g id="Layer_2">
	<path class="st0" d="M449.7,512H62.3C28,512,0,484,0,449.7V62.3C0,28,28,0,62.3,0h387.3C484,0,512,28,512,62.3v387.3
		C512,484,484,512,449.7,512z"/>
</g>
<g id="Layer_1" focusable="false">
	<g>
		<path class="st1" d="M331,274H181c-5,0-9,4-9,9v72c0,5,4,9,9,9h150c5,0,9-4,9-9v-72C340,278,336,274,331,274z M331,148H181
			c-5,0-9,4-9,9v72c0,5,4,9,9,9l0,0h150c5,0,9-4,9-9l0,0v-72C340,152,336,148,331,148z"/>
		<path class="st2" d="M430,112h-6v15c0,5-4,9-9,9h-30c-5,0-9-4-9-9v-15H136v15c0,5-4,9-9,9H97c-5,0-9-4-9-9v-15h-6
			c-9.9,0-18,8-18,17.9c0,0,0,0.1,0,0.1v252c0,9.9,8,18,17.9,18c0,0,0.1,0,0.1,0h6v-15c0-5,4-9,9-9h30c5,0,9,4,9,9v15h240v-15
			c0-5,4-9,9-9h30c5,0,9,4,9,9v15h6c9.9,0,18-8,18-17.9c0,0,0-0.1,0-0.1V130C448,120.1,440,112,430,112C430.1,112,430,112,430,112z
			 M136,343c0,5-4,9-9,9H97c-5,0-9-4-9-9v-30c0-5,4-9,9-9h30c5,0,9,4,9,9V343z M136,271c0,5-4,9-9,9H97c-5,0-9-4-9-9v-30
			c0-5,4-9,9-9h30c5,0,9,4,9,9V271z M136,199c0,5-4,9-9,9H97c-5,0-9-4-9-9v-30c0-5,4-9,9-9h30c5,0,9,4,9,9V199z M340,355
			c0,5-4,9-9,9H181c-5,0-9-4-9-9v-72c0-5,4-9,9-9h150c5,0,9,4,9,9V355z M340,229c0,5-4,9-9,9l0,0H181c-5,0-9-4-9-9l0,0v-72
			c0-5,4-9,9-9h150c5,0,9,4,9,9V229z M424,343c0,5-4,9-9,9h-30c-5,0-9-4-9-9v-30c0-5,4-9,9-9h30c5,0,9,4,9,9V343z M424,271
			c0,5-4,9-9,9h-30c-5,0-9-4-9-9v-30c0-5,4-9,9-9h30c5,0,9,4,9,9V271z M424,199c0,5-4,9-9,9h-30c-5,0-9-4-9-9v-30c0-5,4-9,9-9h30
			c5,0,9,4,9,9V199z"/>
	</g>
</g>
</svg>
