<?xml version="1.0" encoding="utf-8"?>
<!-- Generator: Adobe Illustrator 23.0.3, SVG Export Plug-In . SVG Version: 6.00 Build 0)  -->
<svg version="1.1" id="Layer_1" focusable="false" xmlns="http://www.w3.org/2000/svg" xmlns:xlink="http://www.w3.org/1999/xlink"
	 x="0px" y="0px" viewBox="0 0 512 512" style="enable-background:new 0 0 512 512;" xml:space="preserve">
<style type="text/css">
	.st0{opacity:0.5;fill:#FFFFFF;}
	.st1{fill:#FFFFFF;}
</style>
<g>
	<path class="st0" d="M356,280H156c-6.6,0-12,5.4-12,12v96c0,6.6,5.4,12,12,12h200c6.6,0,12-5.4,12-12v-96
		C368,285.4,362.6,280,356,280z M356,112H156c-6.6,0-12,5.4-12,12v96c0,6.6,5.4,12,12,12l0,0h200c6.6,0,12-5.4,12-12l0,0v-96
		C368,117.4,362.6,112,356,112z"/>
	<path class="st1" d="M488,64h-8v20c0,6.6-5.4,12-12,12h-40c-6.6,0-12-5.4-12-12V64H96v20c0,6.6-5.4,12-12,12H44
		c-6.6,0-12-5.4-12-12V64h-8C10.8,64,0,74.7,0,87.9c0,0,0,0.1,0,0.1v336c0,13.2,10.7,24,23.9,24c0,0,0.1,0,0.1,0h8v-20
		c0-6.6,5.4-12,12-12h40c6.6,0,12,5.4,12,12v20h320v-20c0-6.6,5.4-12,12-12h40c6.6,0,12,5.4,12,12v20h8c13.2,0,24-10.7,24-23.9
		c0,0,0-0.1,0-0.1V88c0-13.2-10.7-24-23.9-24C488.1,64,488,64,488,64z M96,372c0,6.6-5.4,12-12,12H44c-6.6,0-12-5.4-12-12v-40
		c0-6.6,5.4-12,12-12h40c6.6,0,12,5.4,12,12V372z M96,276c0,6.6-5.4,12-12,12H44c-6.6,0-12-5.4-12-12v-40c0-6.6,5.4-12,12-12h40
		c6.6,0,12,5.4,12,12V276z M96,180c0,6.6-5.4,12-12,12H44c-6.6,0-12-5.4-12-12v-40c0-6.6,5.4-12,12-12h40c6.6,0,12,5.4,12,12V180z
		 M368,388c0,6.6-5.4,12-12,12H156c-6.6,0-12-5.4-12-12v-96c0-6.6,5.4-12,12-12h200c6.6,0,12,5.4,12,12V388z M368,220
		c0,6.6-5.4,12-12,12l0,0H156c-6.6,0-12-5.4-12-12l0,0v-96c0-6.6,5.4-12,12-12h200c6.6,0,12,5.4,12,12V220z M480,372
		c0,6.6-5.4,12-12,12h-40c-6.6,0-12-5.4-12-12v-40c0-6.6,5.4-12,12-12h40c6.6,0,12,5.4,12,12V372z M480,276c0,6.6-5.4,12-12,12h-40
		c-6.6,0-12-5.4-12-12v-40c0-6.6,5.4-12,12-12h40c6.6,0,12,5.4,12,12V276z M480,180c0,6.6-5.4,12-12,12h-40c-6.6,0-12-5.4-12-12v-40
		c0-6.6,5.4-12,12-12h40c6.6,0,12,5.4,12,12V180z"/>
</g>
</svg>
